<?xml version="1.0" encoding="utf-8"?>
<svg xmlns="http://www.w3.org/2000/svg" viewBox="165 405 705 225">
 <g fill="#E6EDF3">
  <path d="M453.5 613.6 c-29.4 -5.6 -52.2 -26.8 -60.2 -56 -2.6 -9.6 -2.4 -29 0.5 -39 3.3 -11.6 9.7 -23.1 16.2 -29.6 7.8 -7.6 19.9 -17.2 23.5 -18.5 1.6 -0.6 4.4 -1.8 6.1 -2.8 7.8 -4.1 34.6 -6 45.7 -3.2 25.7 6.5 47.4 27.9 54.8 54 1.8 6.3 2.3 10.5 2.3 20 0 14.3 -2.2 23.5 -8.7 35.9 -6.9 13.3 -28.1 33.6 -35 33.6 -0.8 0 -2.2 0.9 -3.2 2 -1 1.1 -3 2 -4.5 2 -1.4 0 -3.1 0.5 -3.8 1.2 -1.7 1.7 -25.3 2 -33.7 0.4z m-9.4 -26.8 c0 -0.2 0.4 -13 0.8 -28.4 0.5 -15.5 1.1 -28.6 1.5 -29.3 0.5 -0.8 7 -1.1 21.2 -1.1 l20.4 0 0.1 5.3 c0.1 2.8 0.4 16 0.8 29.2 l0.6 24 7.5 0 c7.4 0 7.5 0 7.2 -2.5 -0.1 -1.4 -1.6 -14.2 -3.2 -28.4 -1.6 -14.3 -2.7 -26.3 -2.4 -26.8 0.3 -0.4 3.6 -0.8 7.5 -0.8 l6.9 0 0 -4.5 0 -4.5 -8 0 -8 0 0 -5 0 -4.9 7 -0.3 7.1 -0.3 3.5 -6.4 3.5 -6.4 -11 0.5 c-7 0.3 -11.5 0.9 -12.6 1.8 -1.2 1 -6.6 1.1 -26.3 0.6 -13.6 -0.3 -26.9 -1 -29.7 -1.4 -2.7 -0.5 -8.4 -1.5 -12.6 -2.2 -4.2 -0.7 -8.4 -1 -9.3 -0.7 -1.6 0.6 -1.4 1.3 1.7 7 l3.5 6.2 7.7 0.9 7.7 0.9 -0.6 4.5 c-0.8 6.2 -1.9 7.2 -8.2 7.2 -4.6 0 -5.6 0.4 -7 2.5 -0.8 1.3 -1.3 2.9 -0.9 3.5 0.3 0.5 3.9 1 7.9 1 l7.2 0 -1.3 12.8 c-0.8 7 -2.2 19.9 -3.2 28.7 -1 8.8 -1.6 16.3 -1.4 16.8 0.4 0.6 14.2 1.1 14.4 0.5z"/>
  <path d="M446 516.3 c0 -1.6 0.3 -3.8 0.6 -5 0.6 -2.3 0.7 -2.3 20.5 -2.3 l19.9 0 0 5 0 5 -20.5 0 -20.5 0 0 -2.7z"/>
  <path d="M765.7 614 c-24.3 -4.4 -45 -19.7 -54.8 -40.5 -6.2 -13.1 -6.8 -17.8 -7 -57.4 -0.2 -33.6 0 -36.2 1.7 -39.2 1.1 -1.7 3.4 -4 5.3 -5 1.9 -1 4.7 -3 6.2 -4.5 2.2 -2.1 4.1 -2.8 8.3 -3.2 6.8 -0.6 11.8 1.1 16.8 5.6 7.4 6.7 7.2 5.8 7.8 43.7 0.5 32.7 0.6 34.2 2.7 38.1 2.8 5.3 7.1 9.6 12 12 3 1.5 6 1.9 14 1.9 l10.2 0 5.2 -5 c2.8 -2.7 6.2 -7.2 7.5 -10 2.3 -4.9 2.4 -5.5 2.4 -35.6 0 -34 0.5 -37.1 6.5 -43.4 2.6 -2.9 4 -3.5 7.2 -3.5 2.5 0 5 -0.8 6.6 -2 4.8 -3.8 13 -1.7 19.8 5 6.9 6.9 7.1 8.3 6.7 47.6 -0.4 31.3 -0.6 34.5 -2.7 41.2 -4.3 14.7 -11.4 25.7 -23.4 36.7 -4.6 4.1 -11 9 -14.3 10.7 -3.2 1.7 -7.7 4 -9.8 5.1 -3.3 1.7 -6 2.1 -17 2.3 -7.2 0.2 -15.3 -0.1 -17.9 -0.6z"/>
  <path d="M186.2 611.4 c-2.9 -1.4 -6.4 -4.1 -7.7 -5.8 -5.7 -7.4 -5.5 -4.8 -5.5 -94 0 -51.9 0.4 -83.4 1 -85.7 1.5 -5.3 5.2 -10.3 8.1 -10.9 1.3 -0.3 4.1 -1.7 6 -3.3 3 -2.3 4.6 -2.7 9.8 -2.7 7.2 0 11.7 1.8 16.3 6.4 6.3 6.2 6.3 6.2 6.8 50.5 l0.5 40.5 24 -23.2 c14.5 -14.1 24.9 -23.5 26.5 -23.8 1.4 -0.3 3.5 -1 4.8 -1.5 5.9 -2.3 16.5 0.3 22 5.4 5.8 5.3 8.4 15.3 6.2 23.4 -1.2 4.3 -3.5 7 -23.4 26.5 l-22.1 21.8 21.4 21.2 c13.8 13.8 22.1 22.7 23.2 25.3 4.3 9.3 1 20.9 -8.1 28.5 -4.6 3.8 -5.1 4 -11.6 4 -11 -0.1 -12.9 -1.4 -37.5 -25.7 -12.2 -12 -22.8 -21.8 -23.7 -21.8 -1.5 0 -1.8 1.9 -2.2 15.5 -0.6 17.6 -1.1 19.3 -8.8 27.3 l-4.6 4.7 -8.1 0 c-6.7 0 -9 -0.4 -13.3 -2.6z"/>
  <path d="M567.3 611.5 c-2.8 -1.4 -6.3 -4.1 -7.8 -6 -5.7 -7.5 -5.5 -4.7 -5.5 -93.9 0 -85 0.1 -87.1 4.2 -92.8 1.9 -2.8 9.6 -6.8 12.8 -6.8 1 0 2.3 -0.7 3 -1.5 1.7 -2 10.2 -2 14.5 0 4 1.9 9.1 6.9 11.3 10.9 1.5 2.7 1.8 8.2 2.2 44 l0.5 40.9 22 -21.5 c12.1 -11.8 23.1 -21.9 24.5 -22.3 1.4 -0.4 3.4 -1.5 4.5 -2.5 3 -2.7 14.2 -3.3 19.2 -1 8.6 3.9 13.6 11.9 13.6 21.5 0 3.9 -0.6 7.2 -1.8 9.5 -1 1.9 -11.3 12.8 -22.9 24.2 l-21.1 20.7 21.7 21.8 c14 14 22.3 23.1 23.3 25.5 3.6 8.7 0.9 18.8 -7.3 27.1 l-4.6 4.7 -7.6 0 c-11.8 -0.1 -13.4 -1.1 -37.8 -25.5 -16 -16 -22.1 -21.5 -23.6 -21.3 -2 0.3 -2.1 1.1 -2.6 15.3 -0.5 14 -0.7 15.3 -3.1 19.5 -1.5 2.5 -4.7 6.1 -7 8 -4 3.2 -5 3.5 -11.9 3.8 -6.5 0.3 -8.2 0 -12.7 -2.3z"/>
 </g>
 <g fill="#a6c119">
  <path d="M343.5 611.6 c-2.8 -1.3 -6.3 -3.8 -7.8 -5.6 -5.8 -6.8 -5.7 -5.7 -5.7 -62.4 0 -48.4 0.2 -52.4 1.9 -56.1 8.3 -18.1 34.9 -18.7 44.4 -1 2.2 4 2.2 4.6 2.2 57 0 49.2 -0.1 53.2 -1.8 56.3 -2.5 4.6 -8.5 11 -11.8 12.8 -4.5 2.3 -15.5 1.8 -21.4 -1z"/>
  <path d="M349.8 461 c-10.1 -1.9 -18.3 -9.9 -20.9 -20.3 -2.4 -9.7 1.6 -20.7 9.8 -26.9 4.4 -3.3 5.6 -3.7 13.3 -4.3 6.7 -0.6 9.3 -0.4 12.3 0.8 10.3 4.4 16.2 13.3 16.1 24.7 -0.1 8.5 -2.8 14.6 -9.3 20.9 -6.2 6 -10.9 7.2 -21.3 5.1z"/>
 </g>
</svg>
